<svg width="101" height="101" viewBox="0 0 101 101" fill="none" xmlns="http://www.w3.org/2000/svg">
<path d="M16.8333 67.3333H30.3C32.0769 67.3333 33.5975 66.7011 34.8618 65.4368C36.1225 64.1761 36.7528 62.6574 36.7528 60.8806V40.1194C36.7528 38.3426 36.1225 36.822 34.8618 35.5576C33.5975 34.297 32.0769 33.6667 30.3 33.6667H16.8333V67.3333ZM23.2861 60.8806V40.1194H30.3V60.8806H23.2861ZM44.1875 67.3333L57.9347 67.1931V60.8806H46.4319V53.5861H53.7264V47.1333H46.4319V40.1194H57.9347V33.6667H44.1875C42.9718 33.6667 41.9674 34.0632 41.1743 34.8562C40.3776 35.653 39.9792 36.6593 39.9792 37.875V63.125C39.9792 64.3407 40.3776 65.3451 41.1743 66.1382C41.9674 66.9349 42.9718 67.3333 44.1875 67.3333ZM73.0847 67.1931C74.3005 67.1931 75.3516 66.7947 76.2382 65.9979C77.1285 65.2048 77.7139 64.2005 77.9944 62.9847L85.85 33.6667H79.1167L73.0847 56.6722L67.0528 33.6667H60.3194L68.175 62.9847C68.4556 64.2005 69.041 65.2048 69.9313 65.9979C70.8178 66.7947 71.869 67.1931 73.0847 67.1931ZM11.2222 101C8.13611 101 5.49328 99.9021 3.29372 97.7063C1.09791 95.5067 0 92.8639 0 89.7778V11.2222C0 8.13611 1.09791 5.49328 3.29372 3.29372C5.49328 1.09791 8.13611 0 11.2222 0H89.7778C92.8639 0 95.5067 1.09791 97.7063 3.29372C99.9021 5.49328 101 8.13611 101 11.2222V89.7778C101 92.8639 99.9021 95.5067 97.7063 97.7063C95.5067 99.9021 92.8639 101 89.7778 101H11.2222Z" fill="#0B111F"/>
</svg>
