<svg width="97" height="101" viewBox="0 0 97 101" fill="none" xmlns="http://www.w3.org/2000/svg">
<path d="M94.7277 18.9845L49.9461 0.280858C49.0182 -0.0936195 47.9818 -0.0936195 47.0539 0.280858L2.27228 18.9845C1.51869 19.3128 0.892404 19.8785 0.488356 20.5957C0.0843072 21.3129 -0.0754825 22.1426 0.0332021 22.959L7.49681 79.07C7.5785 79.6718 7.80338 80.2451 8.15248 80.7415C8.50158 81.2379 8.96466 81.6429 9.50265 81.9223L46.8207 100.626C47.3464 100.872 47.9197 101 48.5 101C49.0803 101 49.6536 100.872 50.1793 100.626L87.4973 81.9223C88.0353 81.6429 88.4984 81.2379 88.8475 80.7415C89.1966 80.2451 89.4215 79.6718 89.5032 79.07L96.9668 22.959C97.0755 22.1426 96.9157 21.3129 96.5116 20.5957C96.1076 19.8785 95.4813 19.3128 94.7277 18.9845ZM66.9724 66.9594C66.4428 67.194 65.872 67.3211 65.2931 67.3334C64.5987 67.333 63.9179 67.1407 63.3254 66.7777C62.7329 66.4148 62.2517 65.8952 61.9345 65.276L58.0161 57.3737H38.9839L35.0655 65.276C34.6201 66.1689 33.8391 66.8479 32.8943 67.1636C31.9495 67.4793 30.9183 67.4058 30.0276 66.9594C29.1368 66.5129 28.4595 65.73 28.1445 64.783C27.8296 63.8359 27.9029 62.8023 28.3483 61.9094L45.1414 28.2428C45.4592 27.6246 45.9408 27.106 46.5332 26.744C47.1257 26.382 47.8061 26.1905 48.5 26.1905C49.1939 26.1905 49.8743 26.382 50.4667 26.744C51.0592 27.106 51.5408 27.6246 51.8586 28.2428L68.6517 61.9094C69.0785 62.8053 69.142 63.8322 68.8288 64.7741C68.5156 65.716 67.8501 66.4993 66.9724 66.9594ZM48.5 38.296L54.2843 49.8923H42.7157L48.5 38.296Z" fill="#0B111F"/>
</svg>
