<svg width="101" height="101" viewBox="0 0 101 101" fill="none" xmlns="http://www.w3.org/2000/svg">
<path d="M33.7442 6.26321C33.4284 6.07065 33.1742 5.79233 33.0113 5.46087C32.8484 5.1294 32.7836 4.75851 32.8245 4.39164C32.8653 4.02477 33.0102 3.67711 33.2421 3.38938C33.474 3.10166 33.7833 2.88579 34.1337 2.76705C41.2307 0.318734 48.786 -0.52017 56.2492 0.311441C63.7124 1.14305 70.8956 3.62424 77.2757 7.57427C77.513 7.71555 77.7175 7.90561 77.8756 8.13179C78.0336 8.35798 78.1415 8.61512 78.1922 8.88612C78.2428 9.15712 78.2351 9.43577 78.1694 9.70355C78.1037 9.97133 77.9817 10.2221 77.8113 10.4392C72.1499 17.6034 65.2383 23.6897 57.409 28.4056C51.0727 19.5316 43.028 12.0045 33.7442 6.26321ZM50.4459 32.0474C43.3167 22.3879 33.965 14.5776 23.1778 9.2738C22.8593 9.12991 22.5098 9.06786 22.161 9.09331C21.8123 9.11875 21.4755 9.23089 21.1814 9.41947C12.4534 15.6884 5.928 24.5403 2.53204 34.7181C2.45168 34.9764 2.42632 35.2486 2.45757 35.5173C2.48882 35.786 2.57599 36.0452 2.71351 36.2783C2.85103 36.5115 3.03585 36.7134 3.25615 36.8711C3.47645 37.0289 3.72736 37.1391 3.99282 37.1945C9.08117 38.2896 14.2717 38.843 19.4772 38.8455C30.1737 38.859 40.7437 36.5387 50.4459 32.0474ZM100.989 45.0124C99.7436 33.7492 94.7357 23.231 86.7708 15.1493C86.5741 14.9583 86.3401 14.8098 86.0832 14.713C85.8264 14.6163 85.5523 14.5734 85.2782 14.5871C85.004 14.6008 84.7355 14.6707 84.4897 14.7925C84.2438 14.9143 84.0258 15.0853 83.8492 15.295C77.6918 23.1311 70.1504 29.7794 61.5965 34.9123C64.2647 39.5295 66.4823 44.3914 68.2188 49.4311C75.1876 47.552 82.3759 46.6049 89.595 46.6148C92.6864 46.6219 95.775 46.8002 98.8466 47.1489C99.1355 47.1795 99.4276 47.1453 99.7015 47.0487C99.9753 46.9521 100.224 46.7957 100.43 46.5909C100.635 46.386 100.792 46.138 100.889 45.8648C100.985 45.5917 101.02 45.3004 100.989 45.0124ZM70.3613 56.909C71.7919 63.0381 72.5107 69.3109 72.5038 75.6038C72.5002 81.6154 71.8306 87.6081 70.5073 93.4731C70.4206 93.8337 70.4392 94.2116 70.5609 94.5621C70.6827 94.9125 70.9025 95.2209 71.1944 95.4507C71.4863 95.6805 71.8381 95.8222 72.2082 95.8589C72.5783 95.8957 72.9512 95.826 73.2828 95.6582C80.6715 91.9729 87.045 86.5425 91.8484 79.8397C96.6518 73.137 99.7396 65.365 100.843 57.2004C100.877 56.945 100.86 56.6854 100.792 56.4368C100.725 56.1881 100.608 55.9553 100.45 55.7519C100.291 55.5486 100.094 55.3787 99.8685 55.2523C99.6434 55.1258 99.3954 55.0452 99.1388 55.0153C95.9761 54.5843 92.7871 54.3734 89.595 54.384C83.1001 54.376 76.6328 55.225 70.3613 56.909ZM60.7688 51.859C59.2257 47.2576 57.2019 42.8308 54.7308 38.6513C43.7265 43.9066 31.6783 46.6281 19.4772 46.6148C13.7651 46.6117 8.06912 46.0095 2.48334 44.8181C2.21277 44.7622 1.93335 44.7642 1.66365 44.8242C1.39394 44.8842 1.14012 45.0008 0.919058 45.1661C0.697992 45.3314 0.514735 45.5418 0.381463 45.7832C0.248191 46.0246 0.167953 46.2915 0.146082 46.5662C0.0486958 47.8611 3.20741e-06 49.1721 3.20741e-06 50.4994C-0.00246791 57.4136 1.42297 64.2542 4.18751 70.595C6.95205 76.9358 10.9964 82.6409 16.0687 87.3548C16.2777 87.555 16.5299 87.7048 16.8059 87.7927C17.082 87.8807 17.3745 87.9045 17.6612 87.8624C17.9479 87.8202 18.2211 87.7131 18.4599 87.5494C18.6987 87.3857 18.8968 87.1696 19.0389 86.9178C28.5398 70.8338 43.2614 58.4657 60.7688 51.859ZM25.1742 91.8707C25.0443 92.0933 24.9601 92.3396 24.9265 92.595C24.893 92.8504 24.9107 93.11 24.9786 93.3585C25.0466 93.6071 25.1635 93.8396 25.3225 94.0427C25.4814 94.2458 25.6793 94.4153 25.9046 94.5413C33.4511 98.7912 41.974 101.016 50.6406 101C53.5962 101.012 56.5466 100.752 59.4541 100.223C59.7906 100.167 60.1051 100.02 60.3629 99.7967C60.6207 99.5739 60.8117 99.2844 60.9148 98.9601C63.4405 91.4311 64.7232 83.5429 64.7129 75.6038C64.7102 70.1321 64.106 64.6773 62.9112 59.3369C46.9612 65.5417 33.6368 77.0289 25.1742 91.8707Z" fill="#0B111F"/>
</svg>
