<svg width="115" height="92" viewBox="0 0 115 92" fill="none" xmlns="http://www.w3.org/2000/svg">
<rect x="-0.00012207" width="114.827" height="92" rx="10" fill="#FF9914"/>
<path d="M57.414 21.559C60.6691 21.559 63.8923 22.2001 66.8996 23.4458C69.9069 24.6914 72.6394 26.5172 74.9411 28.8189C77.2428 31.1206 79.0686 33.8531 80.3142 36.8604C81.5599 39.8677 82.201 43.0909 82.201 46.3459C82.201 52.9198 79.5895 59.2245 74.9411 63.873C70.2926 68.5214 63.988 71.1329 57.414 71.1329C54.159 71.1329 50.9358 70.4918 47.9285 69.2461C44.9212 68.0004 42.1887 66.1746 39.887 63.873C35.2386 59.2245 32.6271 52.9198 32.6271 46.3459C32.6271 39.772 35.2386 33.4674 39.887 28.8189C44.5355 24.1704 50.8401 21.559 57.414 21.559M57.414 26.5164C55.7706 26.5164 54.1944 27.1692 53.0323 28.3313C51.8702 29.4935 51.2173 31.0696 51.2173 32.7131C51.2173 34.3566 51.8702 35.9327 53.0323 37.0949C54.1944 38.257 55.7706 38.9098 57.414 38.9098C59.0575 38.9098 60.6337 38.257 61.7958 37.0949C62.9579 35.9327 63.6108 34.3566 63.6108 32.7131C63.6108 31.0696 62.9579 29.4935 61.7958 28.3313C60.6337 27.1692 59.0575 26.5164 57.414 26.5164M38.5759 40.2235C38.0677 41.7849 38.1998 43.4841 38.9434 44.948C39.687 46.412 40.9812 47.521 42.5419 48.0314C45.8137 49.0725 49.3087 47.3126 50.3498 44.0407C50.858 42.4794 50.7259 40.7802 49.9823 39.3162C49.2387 37.8523 47.9445 36.7433 46.3838 36.2328C43.1367 35.1918 39.617 36.9517 38.5759 40.2235ZM76.2769 40.1492C75.2111 36.9517 71.7161 35.1918 68.469 36.2328C67.692 36.4799 66.9716 36.8786 66.3496 37.4058C65.7276 37.9331 65.2162 38.5784 64.8451 39.3044C64.474 40.0305 64.2505 40.8229 64.1876 41.6359C64.1246 42.4488 64.2234 43.2662 64.4783 44.0407C64.9888 45.6013 66.0978 46.8956 67.5617 47.6392C69.0257 48.3828 70.7249 48.5149 72.2862 48.0067C75.5333 46.9656 77.318 43.4459 76.2769 40.1492ZM45.789 62.3583C48.5403 64.3908 52.4566 63.7712 54.4396 60.995C56.4473 58.2189 55.8277 54.3521 53.0515 52.3444C51.7219 51.383 50.0659 50.9868 48.4451 51.2422C46.8243 51.4976 45.3704 52.384 44.4009 53.7077C42.3931 56.4838 43.0128 60.3506 45.789 62.3583ZM69.0639 62.3583C71.8401 60.3506 72.4597 56.4838 70.452 53.7077C69.9757 53.0474 69.3733 52.488 68.6797 52.0617C67.986 51.6354 67.2149 51.3507 66.4107 51.2239C65.6064 51.0972 64.7851 51.1309 63.994 51.3232C63.2028 51.5156 62.4576 51.8626 61.8013 52.3444C61.1416 52.8207 60.5822 53.4225 60.1553 54.1153C59.7283 54.8081 59.4422 55.5783 59.3133 56.3818C59.1844 57.1853 59.2151 58.0064 59.4039 58.798C59.5926 59.5896 59.9356 60.3361 60.4133 60.995C62.3714 63.7712 66.3126 64.366 69.0639 62.3583M57.414 42.6279C56.428 42.6279 55.4823 43.0196 54.785 43.7169C54.0877 44.4141 53.696 45.3598 53.696 46.3459C53.696 47.332 54.0877 48.2777 54.785 48.975C55.4823 49.6722 56.428 50.064 57.414 50.064C58.4001 50.064 59.3458 49.6722 60.0431 48.975C60.7404 48.2777 61.1321 47.332 61.1321 46.3459C61.1321 45.3598 60.7404 44.4141 60.0431 43.7169C59.3458 43.0196 58.4001 42.6279 57.414 42.6279Z" fill="white"/>
</svg>
