<svg width="175" height="39" viewBox="0 0 175 39" fill="none" xmlns="http://www.w3.org/2000/svg">
<path fill-rule="evenodd" clip-rule="evenodd" d="M135.321 17.4836C133.091 15.1912 133.091 11.4814 135.321 9.18902C137.552 6.89663 141.162 6.89663 143.393 9.18902C145.624 11.4814 145.633 15.2003 143.402 17.4927C142.874 18.035 142.266 18.4452 141.623 18.7323L143.118 20.2682C146.218 17.0825 149.318 13.8969 152.413 10.7158C153.775 9.31663 156.804 8.66492 158.161 10.0549L146.564 21.9727C146.355 21.7767 146.067 21.6445 145.757 21.6445C145.087 21.6536 144.55 22.2051 144.542 22.8933C144.55 23.5814 145.087 24.1329 145.748 24.1329C146.058 24.1329 146.355 24.0098 146.564 23.8139L158.152 35.7225C156.8 37.1125 153.784 36.4608 152.422 35.0617L143.118 25.5184L141.623 27.0542C142.266 27.3413 142.874 27.7515 143.402 28.2938C145.633 30.5862 145.633 34.296 143.402 36.5884C141.171 38.8808 137.552 38.8899 135.321 36.5975C133.091 34.3051 133.091 30.5771 135.321 28.2847L140.572 22.8887L135.321 17.4927V17.4836ZM137.876 30.9007C137.051 31.7484 137.051 33.1202 137.876 33.9679C138.701 34.8156 140.036 34.8156 140.861 33.9679C141.686 33.1202 141.677 31.7575 140.852 30.9098C140.027 30.0621 138.692 30.0621 137.876 30.9007ZM137.867 14.8722C137.051 14.0336 137.051 12.6618 137.876 11.8141C138.701 10.9664 140.036 10.9664 140.852 11.805C141.668 12.6436 141.677 14.0245 140.852 14.8722C140.027 15.7198 138.692 15.7198 137.867 14.8722Z" fill="white"/>
<path fill-rule="evenodd" clip-rule="evenodd" d="M158.888 14.3529L173.896 14.3438C174.499 14.3438 175 14.8542 175 15.4786L174.991 31.1471C175 31.776 174.499 32.2864 173.887 32.2819H158.884L150.16 23.3174L158.884 14.3529H158.888ZM161.984 15.948L161.993 16.7638C161.993 16.9643 161.833 17.1329 161.633 17.1329H159.624C159.429 17.1329 159.265 16.9688 159.265 16.7638L159.256 15.948C159.256 15.7474 159.416 15.5788 159.615 15.5788H161.624C161.82 15.5788 161.984 15.7429 161.984 15.948ZM165.86 15.948L165.869 16.7638C165.869 16.9643 165.709 17.1329 165.509 17.1329H163.5C163.305 17.1329 163.141 16.9688 163.141 16.7638L163.132 15.948C163.132 15.7474 163.292 15.5788 163.491 15.5788H165.5C165.696 15.5788 165.86 15.7429 165.86 15.948ZM169.736 15.948L169.745 16.7638C169.745 16.9643 169.585 17.1329 169.385 17.1329H167.376C167.181 17.1329 167.017 16.9688 167.017 16.7638V15.9434C167.017 15.7429 167.172 15.5834 167.368 15.5834H169.377C169.572 15.5834 169.736 15.7474 169.736 15.9525V15.948ZM173.625 15.948L173.616 16.7638C173.616 16.9643 173.457 17.1329 173.257 17.1329H171.248C171.053 17.1329 170.889 16.9688 170.889 16.7638L170.898 15.948C170.898 15.7474 171.057 15.5788 171.257 15.5788H173.266C173.461 15.5788 173.625 15.7429 173.625 15.948ZM161.979 29.8619V30.6868C161.979 30.8873 161.82 31.0559 161.62 31.0559H159.611C159.416 31.0559 159.252 30.8873 159.252 30.6868V29.8664C159.252 29.6659 159.411 29.4973 159.611 29.4973H161.62C161.815 29.4973 161.979 29.6613 161.979 29.8664V29.8619ZM165.864 29.871L165.855 30.6868C165.855 30.8873 165.696 31.0559 165.496 31.0559H163.487C163.292 31.0559 163.128 30.8918 163.128 30.6868L163.137 29.871C163.137 29.6704 163.296 29.5018 163.496 29.5018H165.505C165.7 29.5018 165.864 29.6659 165.864 29.871ZM169.74 29.871V30.6776C169.74 30.8782 169.581 31.0468 169.381 31.0468H167.372C167.177 31.0468 167.013 30.8827 167.013 30.6776V29.871C167.013 29.6704 167.172 29.5018 167.372 29.5018H169.381C169.576 29.5018 169.74 29.6659 169.74 29.871ZM173.616 29.871V30.6776C173.616 30.8782 173.457 31.0468 173.257 31.0468H171.248C171.053 31.0468 170.889 30.8827 170.889 30.6776V29.871C170.889 29.6704 171.049 29.5018 171.248 29.5018H173.257C173.452 29.5018 173.616 29.6659 173.616 29.871Z" fill="url(#paint0_linear_0_1)"/>
<path d="M21.0922 4.53613V7.11565H7.2111V17.0646H19.4469V19.6441H7.2111V34.711H0V4.53613H21.0922Z" fill="white"/>
<path d="M25.1641 3.97993C25.1641 3.51963 25.2572 3.08212 25.4435 2.66739C25.6297 2.25266 25.8914 1.89718 26.224 1.60095C26.5566 1.30471 26.938 1.06772 27.3726 0.889983C27.8072 0.712243 28.2729 0.621094 28.7785 0.621094C29.2841 0.621094 29.7586 0.712243 30.1976 0.889983C30.6367 1.06772 31.0225 1.30471 31.3463 1.60095C31.67 1.89718 31.9272 2.25266 32.1135 2.66739C32.2998 3.08212 32.3929 3.51963 32.3929 3.97993C32.3929 4.44024 32.2998 4.87319 32.1135 5.28336C31.9272 5.69353 31.67 6.04446 31.3463 6.34069C31.0225 6.63693 30.6367 6.87391 30.1976 7.05165C29.7586 7.22939 29.2841 7.32054 28.7785 7.32054C28.2729 7.32054 27.8028 7.22939 27.3726 7.05165C26.9424 6.87391 26.5566 6.63693 26.224 6.34069C25.8914 6.04446 25.6342 5.69353 25.4435 5.28336C25.2572 4.87319 25.1641 4.44024 25.1641 3.97993ZM25.4435 13.9926L30.1622 11.4541H32.1756V34.7108H25.439V13.9926H25.4435Z" fill="white"/>
<path d="M45.325 34.7108H38.6328V2.84514L43.3116 0.306641H45.325V34.7108Z" fill="white"/>
<path d="M79.7748 19.2656C79.7748 18.7597 79.7127 18.2812 79.5885 17.83C79.4643 17.3788 79.2958 16.9823 79.0785 16.6496C78.8612 16.3169 78.6084 16.048 78.3201 15.8475C78.0319 15.647 77.7214 15.5467 77.3888 15.5467C76.9985 15.5467 76.595 15.6151 76.1781 15.7472C75.7612 15.8794 75.3443 16.0571 74.9319 16.2804C74.5195 16.5038 74.1336 16.7635 73.7744 17.0598C73.4152 17.356 73.0959 17.6659 72.8209 17.994V34.7062H66.173V19.2656C66.173 18.7597 66.1065 18.2812 65.9779 17.83C65.8493 17.3788 65.6719 16.9823 65.4457 16.6496C65.224 16.3169 64.9667 16.048 64.6785 15.8475C64.3902 15.647 64.0931 15.5467 63.7915 15.5467C63.4323 15.5467 63.0464 15.6151 62.634 15.7472C62.2216 15.8794 61.8091 16.0571 61.4011 16.2804C60.9931 16.5038 60.594 16.7635 60.2081 17.0598C59.8267 17.356 59.4808 17.6659 59.1792 17.994V34.7062H52.4648V13.9926L57.1658 11.4541H59.1792V13.9242C60.2347 13.1814 61.3257 12.598 62.461 12.1651C63.5964 11.7367 64.6785 11.5179 65.7207 11.5179C66.2972 11.5179 66.8782 11.5863 67.4636 11.7184C68.049 11.8506 68.6122 12.042 69.1533 12.2881C69.6943 12.5342 70.1955 12.8305 70.6567 13.1768C71.1179 13.5277 71.517 13.9242 71.8497 14.3663C72.3552 13.9516 72.9096 13.5642 73.5172 13.2087C74.1248 12.8532 74.7634 12.5524 75.433 12.3063C76.1027 12.0602 76.7901 11.8688 77.4908 11.7275C78.1915 11.5863 78.8878 11.5179 79.5796 11.5179C80.5198 11.5179 81.4112 11.7048 82.2539 12.0739C83.0965 12.4431 83.8371 12.9581 84.4713 13.6098C85.1055 14.2615 85.6111 15.0271 85.988 15.9022C86.365 16.7772 86.5513 17.7206 86.5513 18.7278V34.7062H79.7748V19.2656Z" fill="white"/>
<path d="M93.7227 3.97993C93.7227 3.51963 93.8158 3.08212 94.0021 2.66739C94.1883 2.25266 94.45 1.89718 94.7826 1.60095C95.1152 1.30471 95.4966 1.06772 95.9312 0.889983C96.3658 0.712243 96.8315 0.621094 97.3371 0.621094C97.8426 0.621094 98.3172 0.712243 98.7562 0.889983C99.1953 1.06772 99.5811 1.30471 99.9049 1.60095C100.229 1.89718 100.486 2.25266 100.672 2.66739C100.858 3.08212 100.951 3.51963 100.951 3.97993C100.951 4.44024 100.858 4.87319 100.672 5.28336C100.486 5.69353 100.229 6.04446 99.9049 6.34069C99.5811 6.63693 99.1953 6.87391 98.7562 7.05165C98.3172 7.22939 97.8426 7.32054 97.3371 7.32054C96.8315 7.32054 96.3614 7.22939 95.9312 7.05165C95.501 6.87391 95.1152 6.63693 94.7826 6.34069C94.45 6.04446 94.1928 5.69353 94.0021 5.28336C93.8158 4.87319 93.7227 4.44024 93.7227 3.97993ZM94.0021 13.9926L98.7208 11.4541H100.734V34.7108H93.9976V13.9926H94.0021Z" fill="white"/>
<path d="M119.858 5.5158C119.756 5.174 119.614 4.84586 119.437 4.52684C119.255 4.20782 119.051 3.9207 118.82 3.67004C118.59 3.41938 118.337 3.21885 118.062 3.06845C117.787 2.91806 117.508 2.84514 117.219 2.84514C116.612 2.84514 116.142 3.15505 115.814 3.7703C115.481 4.38556 115.317 5.31528 115.317 6.56402V11.9281H130.542V34.7154H123.805V14.7036H115.317V34.7108H108.602V14.7036H104.27V11.9236H108.602V9.38508C108.602 8.21381 108.829 7.08357 109.285 5.98978C109.742 4.89599 110.376 3.92981 111.192 3.08668C112.008 2.239 112.975 1.5645 114.093 1.06318C115.21 0.5573 116.443 0.306641 117.787 0.306641C118.306 0.306641 118.785 0.320313 119.215 0.352215C119.65 0.384117 120.062 0.443364 120.461 0.543628C120.86 0.639334 121.26 0.780615 121.663 0.967471C122.067 1.15433 122.501 1.40043 122.963 1.71489L119.867 5.52036L119.858 5.5158ZM123.801 3.97994C123.801 3.51964 123.894 3.08213 124.08 2.6674C124.266 2.25267 124.528 1.89719 124.861 1.60096C125.193 1.30472 125.575 1.06773 126.009 0.889994C126.444 0.712254 126.91 0.621105 127.415 0.621105C127.921 0.621105 128.395 0.712254 128.834 0.889994C129.273 1.06773 129.659 1.30472 129.983 1.60096C130.307 1.89719 130.564 2.25267 130.75 2.6674C130.936 3.08213 131.03 3.51964 131.03 3.97994C131.03 4.44025 130.936 4.8732 130.75 5.28337C130.564 5.69354 130.307 6.04447 129.983 6.3407C129.659 6.63694 129.273 6.87392 128.834 7.05166C128.395 7.22941 127.921 7.32055 127.415 7.32055C126.91 7.32055 126.439 7.22941 126.009 7.05166C125.579 6.87392 125.193 6.63694 124.861 6.3407C124.528 6.04447 124.271 5.69354 124.08 5.28337C123.894 4.8732 123.801 4.44025 123.801 3.97994Z" fill="white"/>
<defs>
<linearGradient id="paint0_linear_0_1" x1="150.165" y1="23.3128" x2="175" y2="23.3128" gradientUnits="userSpaceOnUse">
<stop stop-color="#FF9914"/>
<stop offset="1" stop-color="#DC081E"/>
</linearGradient>
</defs>
</svg>
