<svg width="175" height="39" viewBox="0 0 175 39" fill="none" xmlns="http://www.w3.org/2000/svg">
<g clip-path="url(#clip0_1_50)">
<path fill-rule="evenodd" clip-rule="evenodd" d="M135.321 17.7116C133.091 15.4627 133.091 11.8234 135.321 9.57457C137.552 7.32573 141.162 7.32573 143.393 9.57457C145.623 11.8234 145.632 15.4717 143.402 17.7205C142.874 18.2525 142.266 18.6549 141.623 18.9366L143.118 20.4433C146.218 17.3181 149.318 14.193 152.413 11.0723C153.775 9.69976 156.804 9.06042 158.161 10.424L146.564 22.1154C146.355 21.9231 146.067 21.7935 145.756 21.7935C145.087 21.8024 144.55 22.3434 144.541 23.0185C144.55 23.6936 145.087 24.2346 145.748 24.2346C146.058 24.2346 146.355 24.1138 146.564 23.9216L158.152 35.604C156.799 36.9676 153.784 36.3283 152.422 34.9557L143.118 25.5937L141.623 27.1004C142.266 27.382 142.874 27.7844 143.402 28.3165C145.632 30.5653 145.632 34.2046 143.402 36.4534C141.171 38.7023 137.552 38.7112 135.321 36.4624C133.091 34.2135 133.091 30.5564 135.321 28.3075L140.572 23.014L135.321 17.7205V17.7116ZM137.876 30.8738C137.051 31.7054 137.051 33.0511 137.876 33.8827C138.701 34.7143 140.036 34.7143 140.86 33.8827C141.685 33.0511 141.676 31.7143 140.852 30.8827C140.027 30.0512 138.692 30.0512 137.876 30.8738ZM137.867 15.1497C137.051 14.3271 137.051 12.9814 137.876 12.1498C138.701 11.3182 140.036 11.3182 140.852 12.1409C141.668 12.9635 141.676 14.3182 140.852 15.1497C140.027 15.9813 138.692 15.9813 137.867 15.1497Z" fill="black"/>
<path fill-rule="evenodd" clip-rule="evenodd" d="M158.888 14.64L173.896 14.6311C174.499 14.6311 175 15.1318 175 15.7444L174.991 31.1152C175 31.7322 174.499 32.2329 173.887 32.2284H158.884L150.16 23.4342L158.884 14.64H158.888ZM161.984 16.2048L161.993 17.0051C161.993 17.2019 161.833 17.3673 161.633 17.3673H159.624C159.429 17.3673 159.265 17.2063 159.265 17.0051L159.256 16.2048C159.256 16.0081 159.416 15.8427 159.615 15.8427H161.624C161.82 15.8427 161.984 16.0037 161.984 16.2048ZM165.86 16.2048L165.869 17.0051C165.869 17.2019 165.709 17.3673 165.509 17.3673H163.5C163.305 17.3673 163.141 17.2063 163.141 17.0051L163.132 16.2048C163.132 16.0081 163.292 15.8427 163.491 15.8427H165.5C165.696 15.8427 165.86 16.0037 165.86 16.2048ZM169.736 16.2048L169.745 17.0051C169.745 17.2019 169.585 17.3673 169.385 17.3673H167.376C167.181 17.3673 167.017 17.2063 167.017 17.0051V16.2004C167.017 16.0037 167.172 15.8472 167.368 15.8472H169.377C169.572 15.8472 169.736 16.0081 169.736 16.2093V16.2048ZM173.625 16.2048L173.616 17.0051C173.616 17.2019 173.457 17.3673 173.257 17.3673H171.248C171.053 17.3673 170.889 17.2063 170.889 17.0051L170.898 16.2048C170.898 16.0081 171.057 15.8427 171.257 15.8427H173.266C173.461 15.8427 173.625 16.0037 173.625 16.2048ZM161.979 29.8544V30.6636C161.979 30.8604 161.82 31.0258 161.62 31.0258H159.611C159.416 31.0258 159.252 30.8604 159.252 30.6636V29.8589C159.252 29.6622 159.411 29.4967 159.611 29.4967H161.62C161.815 29.4967 161.979 29.6577 161.979 29.8589V29.8544ZM165.864 29.8634L165.855 30.6636C165.855 30.8604 165.696 31.0258 165.496 31.0258H163.487C163.292 31.0258 163.128 30.8648 163.128 30.6636L163.137 29.8634C163.137 29.6666 163.296 29.5012 163.496 29.5012H165.505C165.7 29.5012 165.864 29.6622 165.864 29.8634ZM169.74 29.8634V30.6547C169.74 30.8514 169.581 31.0168 169.381 31.0168H167.372C167.177 31.0168 167.013 30.8559 167.013 30.6547V29.8634C167.013 29.6666 167.172 29.5012 167.372 29.5012H169.381C169.576 29.5012 169.74 29.6622 169.74 29.8634ZM173.616 29.8634V30.6547C173.616 30.8514 173.457 31.0168 173.257 31.0168H171.248C171.053 31.0168 170.889 30.8559 170.889 30.6547V29.8634C170.889 29.6666 171.049 29.5012 171.248 29.5012H173.257C173.452 29.5012 173.616 29.6622 173.616 29.8634Z" fill="url(#paint0_linear_1_50)"/>
<path d="M21.0922 5.00977V7.54028H7.2111V17.3002H19.4469V19.8307H7.2111V34.6114H0V5.00977H21.0922Z" fill="black"/>
<path d="M25.1635 4.46446C25.1635 4.01291 25.2566 3.5837 25.4428 3.17685C25.6291 2.77 25.8908 2.42128 26.2234 2.13067C26.556 1.84006 26.9374 1.60758 27.372 1.43321C27.8066 1.25885 28.2723 1.16943 28.7779 1.16943C29.2834 1.16943 29.758 1.25885 30.197 1.43321C30.6361 1.60758 31.0219 1.84006 31.3457 2.13067C31.6694 2.42128 31.9266 2.77 32.1129 3.17685C32.2992 3.5837 32.3923 4.01291 32.3923 4.46446C32.3923 4.91602 32.2992 5.34075 32.1129 5.74313C31.9266 6.14551 31.6694 6.48977 31.3457 6.78037C31.0219 7.07098 30.6361 7.30347 30.197 7.47783C29.758 7.65219 29.2834 7.74161 28.7779 7.74161C28.2723 7.74161 27.8022 7.65219 27.372 7.47783C26.9418 7.30347 26.556 7.07098 26.2234 6.78037C25.8908 6.48977 25.6335 6.14551 25.4428 5.74313C25.2566 5.34075 25.1635 4.91602 25.1635 4.46446ZM25.4428 14.287L30.1616 11.7967H32.175V34.6115H25.4384V14.287H25.4428Z" fill="black"/>
<path d="M45.3244 34.6114H38.6322V3.35111L43.311 0.86084H45.3244V34.6114Z" fill="black"/>
<path d="M79.7744 19.4597C79.7744 18.9634 79.7123 18.494 79.5881 18.0514C79.464 17.6088 79.2954 17.2198 79.0781 16.8934C78.8608 16.567 78.608 16.3033 78.3198 16.1065C78.0315 15.9098 77.7211 15.8115 77.3885 15.8115C76.9982 15.8115 76.5946 15.8785 76.1777 16.0082C75.7609 16.1378 75.344 16.3122 74.9315 16.5313C74.5191 16.7504 74.1333 17.0052 73.774 17.2958C73.4148 17.5864 73.0955 17.8904 72.8205 18.2123V34.607H66.1727V19.4597C66.1727 18.9634 66.1061 18.494 65.9775 18.0514C65.8489 17.6088 65.6715 17.2198 65.4453 16.8934C65.2236 16.567 64.9664 16.3033 64.6781 16.1065C64.3898 15.9098 64.0927 15.8115 63.7911 15.8115C63.4319 15.8115 63.0461 15.8785 62.6336 16.0082C62.2212 16.1378 61.8087 16.3122 61.4007 16.5313C60.9927 16.7504 60.5936 17.0052 60.2078 17.2958C59.8264 17.5864 59.4804 17.8904 59.1789 18.2123V34.607H52.4645V14.2869L57.1654 11.7966H59.1789V14.2198C60.2344 13.4911 61.3253 12.9188 62.4607 12.4941C63.596 12.0738 64.6781 11.8592 65.7203 11.8592C66.2968 11.8592 66.8778 11.9263 67.4632 12.0559C68.0486 12.1856 68.6118 12.3734 69.1529 12.6148C69.6939 12.8562 70.1951 13.1468 70.6563 13.4866C71.1175 13.8309 71.5167 14.2198 71.8493 14.6535C72.3549 14.2467 72.9092 13.8666 73.5168 13.5179C74.1244 13.1692 74.763 12.8741 75.4327 12.6327C76.1023 12.3913 76.7897 12.2035 77.4904 12.0649C78.1912 11.9263 78.8874 11.8592 79.5793 11.8592C80.5195 11.8592 81.4109 12.0425 82.2535 12.4047C83.0961 12.7668 83.8368 13.272 84.4709 13.9114C85.1051 14.5507 85.6107 15.3018 85.9877 16.1602C86.3646 17.0186 86.5509 17.9441 86.5509 18.9321V34.607H79.7744V19.4597Z" fill="black"/>
<path d="M93.7222 4.46446C93.7222 4.01291 93.8153 3.5837 94.0016 3.17685C94.1878 2.77 94.4495 2.42128 94.7821 2.13067C95.1147 1.84006 95.4961 1.60758 95.9307 1.43321C96.3653 1.25885 96.831 1.16943 97.3366 1.16943C97.8422 1.16943 98.3167 1.25885 98.7557 1.43321C99.1948 1.60758 99.5806 1.84006 99.9044 2.13067C100.228 2.42128 100.485 2.77 100.672 3.17685C100.858 3.5837 100.951 4.01291 100.951 4.46446C100.951 4.91602 100.858 5.34075 100.672 5.74313C100.485 6.14551 100.228 6.48977 99.9044 6.78037C99.5806 7.07098 99.1948 7.30347 98.7557 7.47783C98.3167 7.65219 97.8422 7.74161 97.3366 7.74161C96.831 7.74161 96.3609 7.65219 95.9307 7.47783C95.5005 7.30347 95.1147 7.07098 94.7821 6.78037C94.4495 6.48977 94.1923 6.14551 94.0016 5.74313C93.8153 5.34075 93.7222 4.91602 93.7222 4.46446ZM94.0016 14.287L98.7203 11.7967H100.734V34.6115H93.9971V14.287H94.0016Z" fill="black"/>
<path d="M119.857 5.97104C119.755 5.63573 119.613 5.31383 119.436 5.00086C119.254 4.6879 119.05 4.40624 118.819 4.16034C118.589 3.91444 118.336 3.71773 118.061 3.57019C117.786 3.42265 117.506 3.35111 117.218 3.35111C116.611 3.35111 116.14 3.65513 115.812 4.2587C115.48 4.86227 115.316 5.77433 115.316 6.99934V12.2616H130.54V34.6159H123.804V14.9843H115.316V34.6114H108.601V14.9843H104.268V12.2571H108.601V9.76681C108.601 8.6178 108.827 7.50902 109.284 6.43601C109.741 5.36301 110.375 4.41518 111.191 3.58807C112.007 2.75649 112.974 2.0948 114.092 1.603C115.209 1.10674 116.442 0.86084 117.786 0.86084C118.305 0.86084 118.784 0.874252 119.214 0.905549C119.648 0.936845 120.061 0.994966 120.46 1.09333C120.859 1.18721 121.258 1.32581 121.662 1.50912C122.065 1.69242 122.5 1.93385 122.961 2.24234L119.866 5.97551L119.857 5.97104ZM123.799 4.46436C123.799 4.0128 123.893 3.5836 124.079 3.17675C124.265 2.7699 124.527 2.42117 124.859 2.13057C125.192 1.83996 125.573 1.60748 126.008 1.43311C126.443 1.25875 126.908 1.16933 127.414 1.16933C127.919 1.16933 128.394 1.25875 128.833 1.43311C129.272 1.60748 129.658 1.83996 129.982 2.13057C130.305 2.42117 130.563 2.7699 130.749 3.17675C130.935 3.5836 131.028 4.0128 131.028 4.46436C131.028 4.91592 130.935 5.34065 130.749 5.74303C130.563 6.14541 130.305 6.48966 129.982 6.78027C129.658 7.07088 129.272 7.30336 128.833 7.47773C128.394 7.65209 127.919 7.74151 127.414 7.74151C126.908 7.74151 126.438 7.65209 126.008 7.47773C125.578 7.30336 125.192 7.07088 124.859 6.78027C124.527 6.48966 124.27 6.14541 124.079 5.74303C123.893 5.34065 123.799 4.91592 123.799 4.46436Z" fill="black"/>
</g>
<defs>
<linearGradient id="paint0_linear_1_50" x1="150.165" y1="23.4298" x2="175" y2="23.4298" gradientUnits="userSpaceOnUse">
<stop stop-color="#DC081E"/>
<stop offset="1" stop-color="#FF9914"/>
</linearGradient>
<clipPath id="clip0_1_50">
<rect width="175" height="37.2781" fill="white" transform="translate(0 0.86084)"/>
</clipPath>
</defs>
</svg>
